<svg width="28" height="28" viewBox="0 0 28 28" fill="none" xmlns="http://www.w3.org/2000/svg">
<path d="M19.2491 2.625V4.375H22.3668L19.4136 7.35525C18.3582 6.5581 17.0718 6.12626 15.7491 6.125C14.1129 6.125 12.5851 6.7725 11.4284 7.93013C10.8566 8.49501 10.4027 9.16778 10.0929 9.90943C9.78306 10.6511 9.62358 11.4469 9.62366 12.2506C9.62375 13.0544 9.78339 13.8501 10.0933 14.5917C10.4033 15.3333 10.8574 16.006 11.4293 16.5708C12.1905 17.332 13.097 17.8789 14.1085 18.1563C14.2083 18.0801 14.3203 18.0005 14.4095 17.9113C14.7763 17.5382 15.0398 17.0763 15.1743 16.5708C14.2216 16.4535 13.3357 16.02 12.6586 15.3396C11.8326 14.5145 11.3741 13.419 11.3741 12.25C11.3741 11.081 11.8335 9.98725 12.6604 9.16125C13.4846 8.33263 14.5801 7.875 15.7491 7.875C16.9181 7.875 18.0128 8.33438 18.8379 9.16125C19.246 9.56537 19.5698 10.0465 19.7906 10.5767C20.0114 11.1069 20.1248 11.6757 20.1241 12.25C20.1241 13.0069 19.9098 13.7113 19.5501 14.3553C19.6341 14.8068 19.6866 15.281 19.6866 15.75C19.6866 16.1869 19.6502 16.6157 19.5773 17.0363C19.7523 16.8936 19.908 16.7318 20.0699 16.5708C21.2266 15.4123 21.8741 13.8863 21.8741 12.25C21.8741 10.9113 21.4331 9.639 20.6439 8.5855L23.6241 5.63325V8.75H25.3741V2.625H19.2491ZM13.8898 9.84375C13.79 9.91988 13.678 9.9995 13.5888 10.0888C13.2108 10.4685 12.964 10.9288 12.824 11.4301C13.7778 11.5526 14.6484 11.9691 15.3396 12.6604C16.1665 13.4855 16.6259 14.581 16.6259 15.7491C16.6259 16.9173 16.1665 18.0119 15.3396 18.8379C14.5136 19.6674 13.4181 20.125 12.2491 20.125C11.0801 20.125 9.98552 19.6656 9.16039 18.8388C8.75189 18.4349 8.42779 17.9539 8.20697 17.4236C7.98615 16.8933 7.87301 16.3244 7.87414 15.75C7.87414 14.9931 8.08852 14.2888 8.44814 13.6448C8.36128 13.1848 8.3156 12.7181 8.31164 12.25C8.31164 11.8137 8.3481 11.3849 8.42102 10.9637C8.24602 11.1064 8.09114 11.2683 7.92839 11.4301C6.77339 12.586 6.12414 14.1138 6.12414 15.75C6.12414 17.0888 6.56514 18.361 7.35439 19.4145L5.87914 20.8906L4.12914 19.1406L2.86914 20.3709L4.61914 22.1209L2.86914 23.8709L4.12914 25.1309L5.87914 23.3809L7.62914 25.1309L8.85852 23.8709L7.10852 22.1209L8.58552 20.6456C9.63997 21.444 10.9265 21.8757 12.2491 21.875C13.8854 21.875 15.4131 21.2275 16.5699 20.0699C17.7266 18.914 18.3741 17.3863 18.3741 15.75C18.3741 14.1138 17.7266 12.5878 16.569 11.4293C15.8078 10.668 14.9013 10.1211 13.8898 9.84375Z" fill="black"/>
</svg>
