<svg width="25" height="24" viewBox="0 0 25 24" fill="none" xmlns="http://www.w3.org/2000/svg">
<g id="Circular" style="mix-blend-mode:luminosity">
<path id="Progress" d="M12.2383 22.2895C12.2383 22.6818 12.5567 23.0022 12.9483 22.9778C14.9574 22.8527 16.9024 22.1982 18.5831 21.0752C20.4612 19.8203 21.925 18.0367 22.7894 15.9499C23.6538 13.8631 23.8799 11.5668 23.4393 9.35147C22.9986 7.13612 21.9109 5.1012 20.3137 3.50402C18.7166 1.90685 16.6817 0.819158 14.4663 0.378498C12.251 -0.0621616 9.9547 0.164001 7.86789 1.02838C5.78108 1.89277 3.99745 3.35655 2.74256 5.23463C1.61952 6.91537 0.965085 8.86037 0.839957 10.8695C0.815569 11.2611 1.13593 11.5795 1.52828 11.5795C1.92064 11.5795 2.23607 11.261 2.26392 10.8696C2.38687 9.14178 2.95705 7.47104 3.92393 6.024C5.0227 4.37958 6.58443 3.0979 8.41161 2.34106C10.2388 1.58421 12.2494 1.38619 14.1891 1.77202C16.1288 2.15786 17.9106 3.11023 19.3091 4.5087C20.7075 5.90717 21.6599 7.68892 22.0457 9.62865C22.4316 11.5684 22.2336 13.579 21.4767 15.4062C20.7199 17.2333 19.4382 18.7951 17.7938 19.8938C16.3467 20.8607 14.676 21.4309 12.9481 21.5538C12.5568 21.5817 12.2383 21.8971 12.2383 22.2895Z" fill="#8F8F8F"/>
</g>
</svg>
