<svg width="68" height="68" viewBox="0 0 68 68" fill="none" xmlns="http://www.w3.org/2000/svg">
<path d="M43.8286 6.375V12.2188H51.6499L43.6293 20.2393C34.5715 13.2188 21.4496 13.8643 13.1436 22.1744C4.13356 31.1857 4.13356 45.8455 13.1489 54.8516C17.4859 59.1756 23.3605 61.6038 29.4848 61.6038C35.6092 61.6038 41.4837 59.1756 45.8207 54.8516C54.1308 46.5402 54.7763 33.4236 47.7558 24.3658L55.7817 16.3505V24.1719H61.6254V6.375H43.8286ZM41.6929 50.7238C38.4528 53.9571 34.0623 55.7731 29.4848 55.7731C24.9073 55.7731 20.5168 53.9571 17.2767 50.7238C10.5444 43.9928 10.5444 33.0384 17.2767 26.3075C24.0089 19.5766 34.962 19.5752 41.6929 26.3075C48.4239 33.0398 48.4252 43.9928 41.6929 50.7238Z" fill="#1A1A1A"/>
</svg>
