<svg width="68" height="68" viewBox="0 0 68 68" fill="none" xmlns="http://www.w3.org/2000/svg">
<path d="M57.1094 25.2344C57.1094 12.4923 46.742 2.125 34 2.125C21.258 2.125 10.8906 12.4923 10.8906 25.2344C10.8906 36.987 19.7094 46.7195 31.0781 48.1591V52.3281H23.375V58.1719H31.0781V65.875H36.9219V58.1719H44.625V52.3281H36.9219V48.1591C48.2906 46.7195 57.1094 36.987 57.1094 25.2344ZM16.7344 25.2344C16.7344 15.7144 24.48 7.96875 34 7.96875C43.52 7.96875 51.2656 15.7144 51.2656 25.2344C51.2656 34.7544 43.52 42.5 34 42.5C24.48 42.5 16.7344 34.7544 16.7344 25.2344Z" fill="#1A1A1A"/>
</svg>
