<svg width="28" height="28" viewBox="0 0 28 28" fill="none" xmlns="http://www.w3.org/2000/svg">
<path d="M19.25 5.83301H23.8C23.9857 5.83301 24.1637 5.90676 24.295 6.03803C24.4263 6.16931 24.5 6.34736 24.5 6.53301V23.7997C24.5 23.9853 24.4263 24.1634 24.295 24.2947C24.1637 24.4259 23.9857 24.4997 23.8 24.4997H4.2C4.01435 24.4997 3.8363 24.4259 3.70503 24.2947C3.57375 24.1634 3.5 23.9853 3.5 23.7997V6.53301C3.5 6.34736 3.57375 6.16931 3.70503 6.03803C3.8363 5.90676 4.01435 5.83301 4.2 5.83301H8.75" stroke="black" stroke-width="1.5" stroke-linecap="round" stroke-linejoin="round"/>
<path d="M13.9993 9.33301L12.8327 6.41634M8.16602 19.833H19.8327M18.9915 7.38351L19.2307 5.94851C19.2435 5.87204 19.2435 5.79398 19.2307 5.71751L18.9903 4.28251C18.8996 3.73808 18.6187 3.24347 18.1977 2.88654C17.7767 2.52962 17.2428 2.33349 16.6908 2.33301H11.309C10.7567 2.33294 10.2222 2.52882 9.80072 2.88579C9.37923 3.24277 9.09804 3.73769 9.00718 4.28251L8.76802 5.71751C8.75522 5.79398 8.75522 5.87204 8.76802 5.94851L9.00718 7.38351C9.09804 7.92833 9.37923 8.42325 9.80072 8.78022C10.2222 9.1372 10.7567 9.33308 11.309 9.33301H16.6897C17.242 9.33308 17.7765 9.1372 18.198 8.78022C18.6195 8.42325 18.9007 7.92833 18.9915 7.38351Z" stroke="black" stroke-width="1.5" stroke-linecap="round" stroke-linejoin="round"/>
</svg>
