<svg width="28" height="28" viewBox="0 0 28 28" fill="none" xmlns="http://www.w3.org/2000/svg">
<path d="M26.25 26.25V28H0V26.25H1.75V18.375C1.75 17.7734 1.86393 17.2083 2.0918 16.6797C2.31966 16.151 2.62956 15.6908 3.02148 15.2988C3.41341 14.9069 3.87826 14.5924 4.41602 14.3555C4.95378 14.1185 5.52344 14 6.125 14H12.25V9.1875C12.25 9.10547 12.2819 9.03711 12.3457 8.98242C12.4095 8.92773 12.4915 8.88216 12.5918 8.8457C12.6921 8.80924 12.7923 8.78646 12.8926 8.77734C12.9928 8.76823 13.0703 8.75911 13.125 8.75C13.1797 8.75 13.2572 8.75456 13.3574 8.76367C13.4577 8.77279 13.5534 8.79557 13.6445 8.83203C13.7357 8.86849 13.8177 8.91406 13.8906 8.96875C13.9635 9.02344 14 9.09635 14 9.1875V14H20.125C20.7266 14 21.2917 14.1139 21.8203 14.3418C22.349 14.5697 22.8092 14.8841 23.2012 15.2852C23.5931 15.6862 23.9076 16.151 24.1445 16.6797C24.3815 17.2083 24.5 17.7734 24.5 18.375V26.25H26.25ZM6.125 15.75C5.78776 15.75 5.46875 15.8092 5.16797 15.9277C4.86719 16.0462 4.60286 16.2103 4.375 16.4199C4.14714 16.6296 3.95573 16.8757 3.80078 17.1582C3.64583 17.4408 3.55013 17.7507 3.51367 18.0879C3.85091 18.4616 4.24284 18.7487 4.68945 18.9492C5.13607 19.1497 5.61458 19.25 6.125 19.25C6.72656 19.25 7.24609 19.1315 7.68359 18.8945C8.12109 18.6576 8.53581 18.3112 8.92773 17.8555C9.028 17.7461 9.12825 17.6595 9.22852 17.5957C9.32878 17.5319 9.46094 17.5 9.625 17.5C9.77995 17.5 9.90755 17.5319 10.0078 17.5957C10.1081 17.6595 10.2129 17.7461 10.3223 17.8555C10.7051 18.3021 11.1152 18.6439 11.5527 18.8809C11.9902 19.1178 12.5143 19.2409 13.125 19.25C13.7266 19.25 14.2461 19.1315 14.6836 18.8945C15.1211 18.6576 15.5358 18.3112 15.9277 17.8555C16.028 17.7461 16.1283 17.6595 16.2285 17.5957C16.3288 17.5319 16.4609 17.5 16.625 17.5C16.7799 17.5 16.9076 17.5319 17.0078 17.5957C17.1081 17.6595 17.2129 17.7461 17.3223 17.8555C17.7051 18.3021 18.1152 18.6439 18.5527 18.8809C18.9902 19.1178 19.5143 19.2409 20.125 19.25C20.6263 19.25 21.1003 19.1497 21.5469 18.9492C21.9935 18.7487 22.39 18.4616 22.7363 18.0879C22.6999 17.7598 22.6087 17.4544 22.4629 17.1719C22.3171 16.8893 22.1257 16.6387 21.8887 16.4199C21.6517 16.2012 21.3828 16.0371 21.082 15.9277C20.7812 15.8184 20.4622 15.7591 20.125 15.75H6.125ZM3.5 26.25H22.75V20.3027C22.3125 20.5215 21.8887 20.6901 21.4785 20.8086C21.0684 20.9271 20.6172 20.9909 20.125 21C19.4688 21 18.8444 20.8906 18.252 20.6719C17.6595 20.4531 17.1172 20.1204 16.625 19.6738C16.1328 20.1113 15.5905 20.4395 14.998 20.6582C14.4056 20.877 13.7812 20.9909 13.125 21C12.4688 21 11.8444 20.8906 11.252 20.6719C10.6595 20.4531 10.1172 20.1204 9.625 19.6738C9.13281 20.1113 8.5905 20.4395 7.99805 20.6582C7.4056 20.877 6.78125 20.9909 6.125 21C5.63281 21 5.18164 20.9408 4.77148 20.8223C4.36133 20.7038 3.9375 20.5306 3.5 20.3027V26.25ZM13.125 7C12.888 7 12.6829 6.91341 12.5098 6.74023C12.3366 6.56706 12.25 6.36198 12.25 6.125C12.25 6.01562 12.2865 5.87435 12.3594 5.70117C12.4323 5.52799 12.5143 5.3457 12.6055 5.1543C12.6966 4.96289 12.7923 4.7806 12.8926 4.60742C12.9928 4.43424 13.0703 4.29753 13.125 4.19727C13.1797 4.29753 13.2526 4.43424 13.3438 4.60742C13.4349 4.7806 13.5306 4.96289 13.6309 5.1543C13.7311 5.3457 13.8177 5.52799 13.8906 5.70117C13.9635 5.87435 14 6.01562 14 6.125C14 6.36198 13.9134 6.56706 13.7402 6.74023C13.5671 6.91341 13.362 7 13.125 7Z" fill="black"/>
</svg>
