<svg width="121" height="136" viewBox="0 0 121 136" fill="none" xmlns="http://www.w3.org/2000/svg">
<path d="M97.2875 6H23.7125C13.9302 6 6 13.471 6 22.6871V112.861C6 122.077 13.9302 129.548 23.7125 129.548H97.2875C107.07 129.548 115 122.077 115 112.861V22.6871C115 13.471 107.07 6 97.2875 6Z" fill="black"/>
<path d="M21.5 1.5H99.5C104.487 1.5 109.511 3.77402 113.302 7.29492C117.098 10.8211 119.5 15.4471 119.5 20V115.5L119.493 115.933C119.361 120.407 117.186 124.988 113.749 128.506C110.206 132.133 105.45 134.5 100.5 134.5H21.5C16.489 134.5 11.4605 132.333 7.67969 128.938C3.89411 125.54 1.5 121.044 1.5 116.5V21C1.5 16.4306 3.91747 11.5428 7.7334 7.76074C11.5438 3.98417 16.5588 1.5 21.5 1.5Z" stroke="#C3C3C3" stroke-width="3"/>
<path d="M97.9935 70.9409H72.106C68.3435 70.9409 65.2935 73.8144 65.2935 77.359V84.4189C65.2935 87.9635 68.3435 90.837 72.106 90.837H97.9935C101.756 90.837 104.806 87.9635 104.806 84.4189V77.359C104.806 73.8144 101.756 70.9409 97.9935 70.9409Z" fill="#05274F"/>
<mask id="mask0_3204_11155" style="mask-type:luminance" maskUnits="userSpaceOnUse" x="78" y="76" width="14" height="10">
<path d="M91.1546 76.717H78.8921V85.0606H91.1546V76.717Z" fill="white"/>
</mask>
<g mask="url(#mask0_3204_11155)">
<path d="M91.1512 76.7175H78.8887V85.0611H91.1512V76.7175Z" fill="#05274F"/>
<path d="M83.2171 83.1385L89.4096 77.3046C89.7516 76.9823 90.3056 76.9823 90.6476 77.3046C90.9896 77.6268 90.9896 78.1487 90.6476 78.4709L84.4552 84.3048C84.1131 84.6271 83.5592 84.6271 83.2172 84.3049C82.8751 83.9826 82.8751 83.4607 83.2171 83.1385Z" fill="#45B1FF"/>
<path d="M79.5077 79.6344C79.8497 79.3121 80.4037 79.3121 80.7457 79.6344L84.4621 83.1356C84.8042 83.4579 84.8042 83.9798 84.4621 84.302C84.1201 84.6242 83.5661 84.6242 83.2241 84.302L79.5077 80.8007C79.1657 80.4785 79.1657 79.9566 79.5077 79.6344Z" fill="#45B1FF"/>
</g>
<path d="M48.9549 70.9409H23.0674C19.3049 70.9409 16.2549 73.8144 16.2549 77.359V84.4189C16.2549 87.9635 19.3049 90.837 23.0674 90.837H48.9549C52.7173 90.837 55.7674 87.9635 55.7674 84.4189V77.359C55.7674 73.8144 52.7173 70.9409 48.9549 70.9409Z" fill="#440B07"/>
<path d="M31.8515 83.9057L39.209 76.9741C39.5463 76.6564 40.0981 76.6564 40.4353 76.9741C40.7725 77.2918 40.7725 77.8117 40.4353 78.1294L33.0778 85.0609C32.7406 85.3786 32.1888 85.3786 31.8515 85.0609C31.5143 84.7432 31.5143 84.2234 31.8515 83.9057Z" fill="#FC4337"/>
<path d="M39.209 85.0609L31.8515 78.1294C31.5143 77.8117 31.5143 77.2918 31.8515 76.9741C32.1888 76.6564 32.7406 76.6564 33.0778 76.9741L40.4353 83.9057C40.7725 84.2234 40.7725 84.7432 40.4353 85.0609C40.0981 85.3786 39.5463 85.3786 39.209 85.0609Z" fill="#FC4337"/>
<path d="M28.3851 48.3372H29.6387C29.5986 48.8152 29.4648 49.2414 29.2375 49.6158C29.0102 49.9868 28.691 50.2793 28.2798 50.4932C27.8687 50.7072 27.3689 50.8141 26.7806 50.8141C26.3294 50.8141 25.9232 50.7339 25.5622 50.5735C25.2012 50.4097 24.892 50.179 24.6346 49.8815C24.3772 49.5807 24.18 49.218 24.0429 48.7935C23.9092 48.3689 23.8424 47.8943 23.8424 47.3695V46.7628C23.8424 46.238 23.9109 45.7633 24.0479 45.3388C24.1883 44.9142 24.3889 44.5515 24.6496 44.2507C24.9104 43.9465 25.2229 43.7142 25.5873 43.5537C25.955 43.3933 26.3678 43.3131 26.8258 43.3131C27.4074 43.3131 27.8988 43.42 28.2999 43.634C28.701 43.8479 29.0119 44.1437 29.2325 44.5215C29.4565 44.8992 29.5935 45.3321 29.6437 45.8201H28.3902C28.3567 45.5059 28.2832 45.2368 28.1695 45.0128C28.0592 44.7889 27.8954 44.6184 27.6782 44.5014C27.4609 44.3811 27.1767 44.3209 26.8258 44.3209C26.5383 44.3209 26.2876 44.3744 26.0736 44.4813C25.8597 44.5883 25.6809 44.7454 25.5371 44.9527C25.3934 45.1599 25.2848 45.4156 25.2112 45.7198C25.141 46.0207 25.1059 46.365 25.1059 46.7527V47.3695C25.1059 47.7372 25.1377 48.0714 25.2012 48.3723C25.268 48.6698 25.3683 48.9255 25.502 49.1394C25.6391 49.3534 25.8129 49.5188 26.0235 49.6358C26.2341 49.7528 26.4865 49.8113 26.7806 49.8113C27.1383 49.8113 27.4274 49.7545 27.6481 49.6409C27.872 49.5272 28.0408 49.3617 28.1545 49.1445C28.2715 48.9238 28.3484 48.6547 28.3851 48.3372ZM30.4309 48.0614V47.9461C30.4309 47.555 30.4877 47.1923 30.6014 46.858C30.715 46.5204 30.8788 46.2279 31.0928 45.9806C31.31 45.7299 31.5741 45.536 31.885 45.3989C32.1992 45.2585 32.5535 45.1883 32.948 45.1883C33.3458 45.1883 33.7001 45.2585 34.011 45.3989C34.3252 45.536 34.5909 45.7299 34.8082 45.9806C35.0255 46.2279 35.1909 46.5204 35.3046 46.858C35.4182 47.1923 35.4751 47.555 35.4751 47.9461V48.0614C35.4751 48.4525 35.4182 48.8152 35.3046 49.1495C35.1909 49.4837 35.0255 49.7762 34.8082 50.0269C34.5909 50.2743 34.3268 50.4682 34.016 50.6086C33.7051 50.7456 33.3524 50.8141 32.958 50.8141C32.5602 50.8141 32.2042 50.7456 31.89 50.6086C31.5791 50.4682 31.315 50.2743 31.0978 50.0269C30.8805 49.7762 30.715 49.4837 30.6014 49.1495C30.4877 48.8152 30.4309 48.4525 30.4309 48.0614ZM31.6393 47.9461V48.0614C31.6393 48.3054 31.6644 48.5361 31.7145 48.7534C31.7646 48.9706 31.8432 49.1612 31.9502 49.325C32.0571 49.4888 32.1942 49.6175 32.3613 49.711C32.5285 49.8046 32.7273 49.8514 32.958 49.8514C33.182 49.8514 33.3758 49.8046 33.5396 49.711C33.7068 49.6175 33.8438 49.4888 33.9508 49.325C34.0578 49.1612 34.1363 48.9706 34.1864 48.7534C34.2399 48.5361 34.2667 48.3054 34.2667 48.0614V47.9461C34.2667 47.7054 34.2399 47.4781 34.1864 47.2642C34.1363 47.0469 34.0561 46.8547 33.9458 46.6875C33.8388 46.5204 33.7018 46.39 33.5346 46.2965C33.3708 46.1995 33.1753 46.151 32.948 46.151C32.7207 46.151 32.5234 46.1995 32.3563 46.2965C32.1925 46.39 32.0571 46.5204 31.9502 46.6875C31.8432 46.8547 31.7646 47.0469 31.7145 47.2642C31.6644 47.4781 31.6393 47.7054 31.6393 47.9461ZM37.6863 46.4469V50.7139H36.4779V45.2886H37.6161L37.6863 46.4469ZM37.4707 47.8007L37.0796 47.7957C37.0829 47.4113 37.1364 47.0586 37.24 46.7377C37.347 46.4168 37.4941 46.141 37.6813 45.9104C37.8718 45.6797 38.0991 45.5026 38.3632 45.3789C38.6273 45.2518 38.9214 45.1883 39.2457 45.1883C39.5064 45.1883 39.7421 45.2251 39.9527 45.2986C40.1666 45.3688 40.3488 45.4842 40.4992 45.6446C40.653 45.8051 40.77 46.014 40.8502 46.2714C40.9304 46.5254 40.9705 46.838 40.9705 47.209V50.7139H39.7571V47.204C39.7571 46.9433 39.7187 46.7377 39.6418 46.5873C39.5682 46.4335 39.4596 46.3249 39.3159 46.2614C39.1755 46.1945 39 46.1611 38.7894 46.1611C38.5821 46.1611 38.3966 46.2045 38.2328 46.2914C38.069 46.3783 37.9303 46.497 37.8167 46.6474C37.7063 46.7979 37.6211 46.9717 37.5609 47.1689C37.5008 47.3661 37.4707 47.5767 37.4707 47.8007ZM43.7584 50.7139H42.5449V44.9376C42.5449 44.4997 42.6319 44.1304 42.8057 43.8295C42.9828 43.5287 43.2352 43.2997 43.5628 43.1426C43.8937 42.9855 44.2865 42.9069 44.7411 42.9069C45.0085 42.9069 45.2659 42.9353 45.5133 42.9922C45.764 43.049 46.0231 43.1209 46.2905 43.2078L46.1049 44.1905C45.9345 44.1337 45.7456 44.0802 45.5384 44.0301C45.3311 43.9766 45.0921 43.9499 44.8213 43.9499C44.457 43.9499 44.1879 44.0334 44.0141 44.2006C43.8436 44.3644 43.7584 44.61 43.7584 44.9376V50.7139ZM44.8464 45.2886V46.1711H41.7126V45.2886H44.8464ZM46.8621 45.2886V50.7139H45.6537V45.2886H46.8621ZM49.4243 46.3215V50.7139H48.2159V45.2886H49.3691L49.4243 46.3215ZM51.0839 45.2535L51.0739 46.3767C51.0004 46.3633 50.9201 46.3533 50.8332 46.3466C50.7497 46.3399 50.6661 46.3366 50.5825 46.3366C50.3753 46.3366 50.1931 46.3666 50.036 46.4268C49.8789 46.4836 49.7469 46.5672 49.6399 46.6775C49.5363 46.7845 49.456 46.9149 49.3992 47.0686C49.3424 47.2224 49.309 47.3945 49.2989 47.5851L49.0231 47.6051C49.0231 47.2642 49.0566 46.9483 49.1234 46.6575C49.1903 46.3666 49.2906 46.1109 49.4243 45.8903C49.5613 45.6697 49.7318 45.4975 49.9357 45.3739C50.143 45.2502 50.382 45.1883 50.6527 45.1883C50.7263 45.1883 50.8048 45.195 50.8884 45.2084C50.9753 45.2218 51.0405 45.2368 51.0839 45.2535ZM53.0495 46.3917V50.7139H51.8411V45.2886H52.9793L53.0495 46.3917ZM52.8539 47.8007L52.4428 47.7957C52.4428 47.4213 52.4896 47.0753 52.5832 46.7577C52.6768 46.4402 52.8138 46.1644 52.9943 45.9304C53.1748 45.6931 53.3988 45.5109 53.6662 45.3839C53.937 45.2535 54.2495 45.1883 54.6038 45.1883C54.8512 45.1883 55.0768 45.2251 55.2807 45.2986C55.488 45.3688 55.6668 45.4808 55.8172 45.6346C55.971 45.7884 56.088 45.9856 56.1682 46.2263C56.2518 46.4669 56.2936 46.7577 56.2936 47.0987V50.7139H55.0852V47.204C55.0852 46.9399 55.0451 46.7327 54.9649 46.5823C54.888 46.4318 54.776 46.3249 54.6289 46.2614C54.4852 46.1945 54.313 46.1611 54.1125 46.1611C53.8851 46.1611 53.6913 46.2045 53.5308 46.2914C53.3737 46.3783 53.245 46.497 53.1447 46.6474C53.0445 46.7979 52.9709 46.9717 52.9241 47.1689C52.8773 47.3661 52.8539 47.5767 52.8539 47.8007ZM56.2184 47.4798L55.6518 47.6051C55.6518 47.2775 55.6969 46.9683 55.7872 46.6775C55.8808 46.3834 56.0161 46.126 56.1933 45.9054C56.3738 45.6814 56.5961 45.5059 56.8602 45.3789C57.1243 45.2518 57.4268 45.1883 57.7677 45.1883C58.0452 45.1883 58.2925 45.2268 58.5098 45.3037C58.7304 45.3772 58.9176 45.4942 59.0714 45.6546C59.2252 45.8151 59.3422 46.024 59.4224 46.2814C59.5026 46.5355 59.5427 46.843 59.5427 47.204V50.7139H58.3293V47.199C58.3293 46.9249 58.2892 46.7126 58.209 46.5622C58.1321 46.4118 58.0218 46.3081 57.878 46.2513C57.7343 46.1912 57.5622 46.1611 57.3616 46.1611C57.1744 46.1611 57.0089 46.1962 56.8652 46.2664C56.7248 46.3332 56.6061 46.4285 56.5092 46.5522C56.4123 46.6725 56.3387 46.8112 56.2886 46.9683C56.2418 47.1254 56.2184 47.2959 56.2184 47.4798ZM65.8304 45.2886V46.1711H62.7718V45.2886H65.8304ZM63.6543 43.9599H64.8627V49.2147C64.8627 49.3818 64.8861 49.5105 64.9329 49.6007C64.983 49.6876 65.0515 49.7461 65.1385 49.7762C65.2254 49.8063 65.3273 49.8214 65.4443 49.8214C65.5279 49.8214 65.6081 49.8163 65.685 49.8063C65.7619 49.7963 65.8237 49.7863 65.8705 49.7762L65.8755 50.6988C65.7752 50.7289 65.6582 50.7557 65.5245 50.7791C65.3942 50.8024 65.2437 50.8141 65.0733 50.8141C64.7958 50.8141 64.5501 50.7657 64.3362 50.6687C64.1223 50.5685 63.9551 50.4063 63.8348 50.1824C63.7144 49.9584 63.6543 49.6609 63.6543 49.2899V43.9599ZM66.412 48.0614V47.9461C66.412 47.555 66.4689 47.1923 66.5825 46.858C66.6962 46.5204 66.86 46.2279 67.0739 45.9806C67.2912 45.7299 67.5552 45.536 67.8661 45.3989C68.1803 45.2585 68.5347 45.1883 68.9291 45.1883C69.3269 45.1883 69.6812 45.2585 69.9921 45.3989C70.3063 45.536 70.5721 45.7299 70.7893 45.9806C71.0066 46.2279 71.1721 46.5204 71.2857 46.858C71.3994 47.1923 71.4562 47.555 71.4562 47.9461V48.0614C71.4562 48.4525 71.3994 48.8152 71.2857 49.1495C71.1721 49.4837 71.0066 49.7762 70.7893 50.0269C70.5721 50.2743 70.308 50.4682 69.9971 50.6086C69.6862 50.7456 69.3336 50.8141 68.9391 50.8141C68.5413 50.8141 68.1853 50.7456 67.8711 50.6086C67.5603 50.4682 67.2962 50.2743 67.0789 50.0269C66.8616 49.7762 66.6962 49.4837 66.5825 49.1495C66.4689 48.8152 66.412 48.4525 66.412 48.0614ZM67.6204 47.9461V48.0614C67.6204 48.3054 67.6455 48.5361 67.6956 48.7534C67.7458 48.9706 67.8243 49.1612 67.9313 49.325C68.0383 49.4888 68.1753 49.6175 68.3425 49.711C68.5096 49.8046 68.7085 49.8514 68.9391 49.8514C69.1631 49.8514 69.357 49.8046 69.5208 49.711C69.6879 49.6175 69.825 49.4888 69.9319 49.325C70.0389 49.1612 70.1174 48.9706 70.1676 48.7534C70.2211 48.5361 70.2478 48.3054 70.2478 48.0614V47.9461C70.2478 47.7054 70.2211 47.4781 70.1676 47.2642C70.1174 47.0469 70.0372 46.8547 69.9269 46.6875C69.8199 46.5204 69.6829 46.39 69.5158 46.2965C69.352 46.1995 69.1564 46.151 68.9291 46.151C68.7018 46.151 68.5046 46.1995 68.3374 46.2965C68.1736 46.39 68.0383 46.5204 67.9313 46.6875C67.8243 46.8547 67.7458 47.0469 67.6956 47.2642C67.6455 47.4781 67.6204 47.7054 67.6204 47.9461ZM77.9194 47.9912H76.019V46.9934H77.9194C78.2503 46.9934 78.5177 46.9399 78.7216 46.833C78.9255 46.726 79.0743 46.5789 79.1679 46.3917C79.2648 46.2012 79.3133 45.9839 79.3133 45.7399C79.3133 45.5092 79.2648 45.2936 79.1679 45.0931C79.0743 44.8892 78.9255 44.7254 78.7216 44.6017C78.5177 44.478 78.2503 44.4162 77.9194 44.4162H76.4051V50.7139H75.1466V43.4133H77.9194C78.4843 43.4133 78.964 43.5136 79.3584 43.7142C79.7562 43.9114 80.0587 44.1855 80.266 44.5365C80.4732 44.8841 80.5768 45.2819 80.5768 45.7299C80.5768 46.2012 80.4732 46.6057 80.266 46.9433C80.0587 47.2809 79.7562 47.5399 79.3584 47.7205C78.964 47.901 78.4843 47.9912 77.9194 47.9912ZM84.5831 49.6258V47.0385C84.5831 46.8447 84.548 46.6775 84.4778 46.5371C84.4076 46.3967 84.3006 46.2881 84.1569 46.2112C84.0165 46.1343 83.8393 46.0959 83.6254 46.0959C83.4282 46.0959 83.2577 46.1293 83.114 46.1962C82.9702 46.263 82.8583 46.3533 82.778 46.4669C82.6978 46.5806 82.6577 46.7093 82.6577 46.853H81.4543C81.4543 46.6391 81.5061 46.4318 81.6097 46.2313C81.7134 46.0307 81.8638 45.8519 82.061 45.6948C82.2582 45.5377 82.4939 45.414 82.768 45.3237C83.0421 45.2335 83.3496 45.1883 83.6906 45.1883C84.0984 45.1883 84.4594 45.2569 84.7736 45.3939C85.0912 45.531 85.3402 45.7382 85.5207 46.0157C85.7046 46.2898 85.7965 46.6341 85.7965 47.0486V49.4603C85.7965 49.7077 85.8132 49.93 85.8467 50.1272C85.8834 50.3211 85.9352 50.4899 86.0021 50.6336V50.7139H84.7636C84.7068 50.5835 84.6617 50.418 84.6282 50.2175C84.5981 50.0136 84.5831 49.8163 84.5831 49.6258ZM84.7586 47.4146L84.7686 48.1617H83.9012C83.6772 48.1617 83.48 48.1834 83.3095 48.2269C83.139 48.267 82.997 48.3272 82.8833 48.4074C82.7697 48.4876 82.6844 48.5845 82.6276 48.6982C82.5708 48.8119 82.5424 48.9405 82.5424 49.0843C82.5424 49.228 82.5758 49.3601 82.6426 49.4804C82.7095 49.5974 82.8064 49.6893 82.9335 49.7562C83.0638 49.823 83.2209 49.8565 83.4048 49.8565C83.6522 49.8565 83.8678 49.8063 84.0516 49.706C84.2388 49.6024 84.3859 49.4771 84.4928 49.33C84.5998 49.1796 84.6566 49.0375 84.6633 48.9038L85.0544 49.4403C85.0143 49.5773 84.9458 49.7244 84.8488 49.8815C84.7519 50.0386 84.6249 50.1891 84.4678 50.3328C84.314 50.4732 84.1285 50.5885 83.9112 50.6788C83.6973 50.769 83.4499 50.8141 83.1691 50.8141C82.8148 50.8141 82.4989 50.744 82.2215 50.6036C81.944 50.4598 81.7267 50.2676 81.5696 50.0269C81.4125 49.7829 81.334 49.5071 81.334 49.1996C81.334 48.9121 81.3875 48.6581 81.4944 48.4375C81.6047 48.2135 81.7652 48.0263 81.9758 47.8759C82.1897 47.7255 82.4504 47.6118 82.758 47.5349C83.0655 47.4547 83.4165 47.4146 83.8109 47.4146H84.7586ZM88.3537 45.2886V50.7139H87.1403V45.2886H88.3537ZM87.0601 43.8646C87.0601 43.6808 87.1202 43.5287 87.2406 43.4083C87.3643 43.2847 87.5347 43.2228 87.752 43.2228C87.966 43.2228 88.1348 43.2847 88.2584 43.4083C88.3821 43.5287 88.444 43.6808 88.444 43.8646C88.444 44.0451 88.3821 44.1955 88.2584 44.3159C88.1348 44.4362 87.966 44.4964 87.752 44.4964C87.5347 44.4964 87.3643 44.4362 87.2406 44.3159C87.1202 44.1955 87.0601 44.0451 87.0601 43.8646ZM90.8908 46.3215V50.7139H89.6824V45.2886H90.8357L90.8908 46.3215ZM92.5505 45.2535L92.5405 46.3767C92.4669 46.3633 92.3867 46.3533 92.2998 46.3466C92.2162 46.3399 92.1327 46.3366 92.0491 46.3366C91.8418 46.3366 91.6597 46.3666 91.5026 46.4268C91.3454 46.4836 91.2134 46.5672 91.1064 46.6775C91.0028 46.7845 90.9226 46.9149 90.8658 47.0686C90.8089 47.2224 90.7755 47.3945 90.7655 47.5851L90.4897 47.6051C90.4897 47.2642 90.5231 46.9483 90.59 46.6575C90.6568 46.3666 90.7571 46.1109 90.8908 45.8903C91.0279 45.6697 91.1984 45.4975 91.4023 45.3739C91.6095 45.2502 91.8485 45.1883 92.1193 45.1883C92.1928 45.1883 92.2714 45.195 92.355 45.2084C92.4419 45.2218 92.507 45.2368 92.5505 45.2535ZM95.569 48.5628H94.4508C94.4542 48.2519 94.4809 47.9912 94.5311 47.7806C94.5812 47.5667 94.6648 47.3728 94.7818 47.199C94.9021 47.0252 95.0609 46.8413 95.2581 46.6474C95.4119 46.5004 95.5506 46.3616 95.6743 46.2313C95.798 46.0976 95.8966 45.9572 95.9701 45.8101C96.0437 45.6597 96.0804 45.4875 96.0804 45.2936C96.0804 45.083 96.0453 44.9042 95.9751 44.7571C95.9049 44.61 95.8013 44.4981 95.6643 44.4212C95.5305 44.3443 95.3634 44.3059 95.1628 44.3059C94.9957 44.3059 94.8386 44.3393 94.6915 44.4061C94.5444 44.4696 94.4258 44.5699 94.3355 44.707C94.2453 44.8407 94.1968 45.0179 94.1901 45.2385H92.9817C92.9884 44.8173 93.0887 44.463 93.2826 44.1755C93.4764 43.888 93.7372 43.6724 94.0648 43.5287C94.3923 43.3849 94.7584 43.3131 95.1628 43.3131C95.6108 43.3131 95.9935 43.3899 96.3111 43.5437C96.6286 43.6941 96.871 43.9148 97.0381 44.2056C97.2086 44.493 97.2938 44.8407 97.2938 45.2485C97.2938 45.5427 97.2353 45.8101 97.1183 46.0508C97.0013 46.2881 96.8493 46.5104 96.6621 46.7176C96.4749 46.9215 96.2726 47.1254 96.0554 47.3294C95.8682 47.4998 95.7411 47.6854 95.6743 47.8859C95.6074 48.0831 95.5723 48.3088 95.569 48.5628ZM94.3506 50.1272C94.3506 49.9467 94.4124 49.7946 94.5361 49.6709C94.6598 49.5439 94.8286 49.4804 95.0425 49.4804C95.2564 49.4804 95.4252 49.5439 95.5489 49.6709C95.6726 49.7946 95.7345 49.9467 95.7345 50.1272C95.7345 50.3077 95.6726 50.4615 95.5489 50.5885C95.4252 50.7122 95.2564 50.774 95.0425 50.774C94.8286 50.774 94.6598 50.7122 94.5361 50.5885C94.4124 50.4615 94.3506 50.3077 94.3506 50.1272Z" fill="white"/>
</svg>
