<svg width="24" height="24" viewBox="0 0 24 24" fill="none" xmlns="http://www.w3.org/2000/svg">
<path d="M15.001 3.79639C15.1874 3.79649 15.3662 3.8706 15.498 4.00244C15.6299 4.13428 15.704 4.31307 15.7041 4.49951C15.7041 4.6861 15.63 4.86562 15.498 4.99756L8.52734 11.9663L8.49414 11.9995L8.52734 12.0327L15.498 19.0024C15.5634 19.0678 15.615 19.1456 15.6504 19.231C15.6857 19.3161 15.704 19.4073 15.7041 19.4995C15.7041 19.5919 15.6857 19.6837 15.6504 19.769C15.615 19.8544 15.5634 19.9322 15.498 19.9976C15.4327 20.0628 15.3549 20.1146 15.2695 20.1499C15.1844 20.1851 15.0931 20.2036 15.001 20.2036C14.9086 20.2036 14.8168 20.1852 14.7314 20.1499C14.6461 20.1145 14.5683 20.0629 14.5029 19.9976L7.00293 12.4976C6.93756 12.4323 6.88597 12.3544 6.85059 12.269C6.81522 12.1837 6.79688 12.0919 6.79688 11.9995C6.79693 11.9073 6.81531 11.8161 6.85059 11.731C6.88596 11.6456 6.93759 11.5677 7.00293 11.5024L14.5029 4.00244C14.6349 3.8705 14.8144 3.79639 15.001 3.79639Z" fill="#1A1A1A" stroke="#1A1A1A" stroke-width="0.09375"/>
</svg>
