<svg width="28" height="28" viewBox="0 0 28 28" fill="none" xmlns="http://www.w3.org/2000/svg">
<path d="M21.2923 2.0918L23.7464 4.54588C23.8527 4.6559 23.9115 4.80325 23.9101 4.9562C23.9088 5.10915 23.8475 5.25545 23.7393 5.36361C23.6311 5.47176 23.4848 5.53311 23.3319 5.53444C23.1789 5.53577 23.0316 5.47697 22.9216 5.37071L21.8757 4.3248V25.6666H20.709V4.3248L19.6631 5.37071C19.6093 5.42643 19.5449 5.47087 19.4737 5.50144C19.4026 5.53201 19.326 5.5481 19.2486 5.54878C19.1711 5.54945 19.0943 5.53469 19.0226 5.50536C18.9509 5.47603 18.8858 5.43271 18.831 5.37794C18.7762 5.32317 18.7329 5.25804 18.7036 5.18635C18.6743 5.11466 18.6595 5.03785 18.6602 4.9604C18.6609 4.88294 18.6769 4.8064 18.7075 4.73523C18.7381 4.66406 18.7825 4.59969 18.8382 4.54588L21.2923 2.0918Z" fill="black"/>
<path fill-rule="evenodd" clip-rule="evenodd" d="M16.9171 5.24967C16.9171 6.02322 16.6098 6.76509 16.0629 7.31207C15.5159 7.85905 14.774 8.16634 14.0005 8.16634C13.2269 8.16634 12.485 7.85905 11.9381 7.31207C11.3911 6.76509 11.0838 6.02322 11.0838 5.24967C11.0838 4.47613 11.3911 3.73426 11.9381 3.18728C12.485 2.6403 13.2269 2.33301 14.0005 2.33301C14.774 2.33301 15.5159 2.6403 16.0629 3.18728C16.6098 3.73426 16.9171 4.47613 16.9171 5.24967ZM15.7505 5.24967C15.7505 5.7138 15.5661 6.15892 15.2379 6.48711C14.9097 6.8153 14.4646 6.99967 14.0005 6.99967C13.5363 6.99967 13.0912 6.8153 12.763 6.48711C12.4348 6.15892 12.2505 5.7138 12.2505 5.24967C12.2505 4.78555 12.4348 4.34043 12.763 4.01224C13.0912 3.68405 13.5363 3.49967 14.0005 3.49967C14.4646 3.49967 14.9097 3.68405 15.2379 4.01224C15.5661 4.34043 15.7505 4.78555 15.7505 5.24967ZM16.283 25.6663C15.8463 25.6664 15.4252 25.5031 15.1027 25.2085C14.7802 24.9139 14.5795 24.5094 14.54 24.0744L14.1014 19.2497H13.899L13.4603 24.0744C13.451 24.1791 13.4322 24.2828 13.4043 24.3842C13.302 24.753 13.0816 25.078 12.7769 25.3096C12.4722 25.5412 12.1 25.6665 11.7173 25.6663H11.6671C11.203 25.6663 10.7579 25.482 10.4297 25.1538C10.1015 24.8256 9.91712 24.3805 9.91712 23.9163V18.7871C9.63452 18.5765 9.40332 18.3045 9.24086 17.9917C9.0784 17.6789 8.98892 17.3334 8.97912 16.9811L8.82512 11.4295C8.81583 11.096 8.87816 10.7644 9.00791 10.457C9.13767 10.1497 9.33183 9.8737 9.57729 9.64775C9.82276 9.4218 10.1138 9.25111 10.4309 9.14721C10.7479 9.0433 11.0835 9.0086 11.4151 9.04542L13.7426 9.30442C13.9145 9.32309 14.0864 9.32309 14.2583 9.30442L16.51 9.05359C16.847 9.0161 17.1882 9.05253 17.5097 9.16035C17.8312 9.26816 18.1254 9.44477 18.3717 9.67787C18.618 9.91097 18.8106 10.195 18.936 10.5101C19.0613 10.8252 19.1165 11.1638 19.0976 11.5024L18.7896 17.0458C18.757 17.6315 18.505 18.1834 18.0838 18.5917V23.9163C18.0838 24.3805 17.8994 24.8256 17.5712 25.1538C17.243 25.482 16.7979 25.6663 16.3338 25.6663H16.283ZM11.0838 18.7871C11.0838 18.6055 11.0414 18.4264 10.96 18.264C10.8785 18.1017 10.7604 17.9606 10.6148 17.852C10.4733 17.7467 10.3575 17.6107 10.2762 17.4542C10.1949 17.2976 10.1501 17.1247 10.1452 16.9484L9.99121 11.3974C9.98652 11.2306 10.0177 11.0648 10.0825 10.9111C10.1474 10.7574 10.2444 10.6194 10.3672 10.5063C10.4899 10.3933 10.6355 10.308 10.794 10.256C10.9525 10.204 11.1204 10.1867 11.2862 10.2051L13.6137 10.4641C13.8704 10.4927 14.13 10.4927 14.3872 10.4641L16.6389 10.2133C16.8075 10.1945 16.9781 10.2127 17.1389 10.2667C17.2997 10.3206 17.4468 10.409 17.57 10.5256C17.6932 10.6422 17.7894 10.7843 17.8521 10.9419C17.9147 11.0995 17.9422 11.2689 17.9327 11.4383L17.6247 16.9811C17.6084 17.2739 17.4824 17.5499 17.2718 17.754C17.1596 17.8628 17.0704 17.993 17.0095 18.1369C16.9485 18.2807 16.9171 18.4354 16.9171 18.5917V23.9163C16.9171 24.0711 16.8557 24.2194 16.7463 24.3288C16.6369 24.4382 16.4885 24.4997 16.3338 24.4997H16.283C16.1374 24.4997 15.997 24.4452 15.8895 24.347C15.782 24.2488 15.7151 24.1139 15.702 23.9688L15.2634 19.1441C15.2372 18.854 15.1034 18.5842 14.8884 18.3878C14.6734 18.1913 14.3926 18.0824 14.1014 18.0824H13.899C13.6077 18.0824 13.327 18.1913 13.112 18.3878C12.8969 18.5842 12.7632 18.854 12.737 19.1441L12.2983 23.9688C12.2852 24.1138 12.2184 24.2486 12.111 24.3468C12.0036 24.445 11.8634 24.4995 11.7179 24.4997H11.6671C11.5124 24.4997 11.364 24.4382 11.2546 24.3288C11.1452 24.2194 11.0838 24.0711 11.0838 23.9163V18.7871Z" fill="black"/>
</svg>
